<svg xmlns="http://www.w3.org/2000/svg" viewBox="0 0 520.4 422.51"><defs><style>.cls-1{fill:#f0dae2;stroke-width:4px;}.cls-1,.cls-2,.cls-3,.cls-4,.cls-5,.cls-6{stroke:#000;stroke-miterlimit:10;}.cls-2{fill:#666;}.cls-2,.cls-3,.cls-4,.cls-5{stroke-width:5px;}.cls-3,.cls-6{fill:none;}.cls-4{fill:#fff;}.cls-5{fill:#76a8cb;}.cls-6{stroke-width:3px;}</style></defs><g id="Layer_2" data-name="Layer 2"><path class="cls-1" d="M290,593c-1.41-3.12.74-7,3-11,4.39-7.86,12.05-12.84,17-16,5.68-3.62,8.16-4.19,8.5-6.5.61-4.15-6.64-8.1-11-11a220.28,220.28,0,0,1-42-36,188.64,188.64,0,0,1-17-23c-9.25-14.56-9.45-19-16-23-11.2-6.76-22.36-.76-26-7-2.94-5.05,5.24-11.7,2-17-2-3.32-6.06-2.31-12-5-7.41-3.36-13.12-10.36-15-16-4.18-12.51,7.68-26.65,17-38,5.16-6.28,13.56-9.36,21.53-20.38a56.69,56.69,0,0,0,4-6.12c5.59-10.12,4.63-16.66,7-29,1.43-7.46,3.45-18,10-29,4.52-7.61,10-15,10-15,6.05-8.16,7.74-9,8.5-12.5,1.47-6.82-3.46-11-8-21-4.72-10.37-5.84-19-7-28-2.1-16.29-3.55-27.51,2-35,8.87-12,31.6-9,74-3,31.22,4.42,32.53,7.46,51,8a97,97,0,0,0,16.57-.74c2.78-.38,6.84-.89,22.67-4.86,16.12-4,14.74-4.15,19.26-4.9,8.49-1.41,14.8-1.25,25-1a253.29,253.29,0,0,1,26,2,123,123,0,0,1,27,5,171.59,171.59,0,0,1,17,6c7.32,3.24,9.72,5.22,14.5,5.5,6.24.37,10.78-2.5,14.5-4.5,6-3.22,16-5.48,36-10,12.26-2.77,21.45-4.79,34-5,12.89-.21,23.85-.26,28.5,6.5,1.6,2.32,1.36,4.73,0,19-1.2,12.57-2.47,26-9,42-5.66,13.86-8.56,13.18-9,20-.83,13,9.59,16.71,19,35,7,13.56,8.65,26.37,12,52,2,15.27-2.25,23.38,4,31,5.54,6.75,11.38,5,18.5,13.5,6.87,8.18,8,17.63,8.5,21.5s2,15-4,25c-3.34,5.56-5.53,5-16,16-9.06,9.54-8.59,12.81-14,15-6.32,2.55-10.08-.12-16.5,3.5a23,23,0,0,0-8,8c-5.47,8.24-20.64,30-31,41-15.26,16.22-30.06,19.77-28.5,25.5.88,3.23,5.8,2.61,16,8,8.18,4.33,20.24,12.53,19,16-1.55,4.33-23.6.47-32-1-21-3.68-25.33-7.79-37-6-8.71,1.34-10.44,4.25-22,9-14,5.75-25,7-42,9a254.65,254.65,0,0,1-57,0c-20.1-2.2-28.16-10.79-44-7-7.27,1.74-7.2,3.56-19.5,7.5-14.49,4.65-25.82,5.72-34.5,6.5C308.64,598,292.89,599.41,290,593Z" transform="translate(-178.64 -177.26)"/></g><g id="Layer_3" data-name="Layer 3"><path class="cls-2" d="M283.5,265.5c-10.59-3.66-14.09-18.75-16-27-1-4.4-6.74-29.07,6-39,4.89-3.81,11.59-3.54,25-3,3.92.16,18.51.93,39,8,13.43,4.63,20.14,6.95,21,11,1,4.91-4.81,9.61-35,30C295.06,264.71,289.72,267.65,283.5,265.5Z" transform="translate(-178.64 -177.26)"/><path class="cls-2" d="M558.5,227.5c.15-3.09,2.93-6.46,37-19,32.42-11.94,37.34-11.62,40-9,2.45,2.42,1.91,5.75-3,30-5.68,28-6.49,31.18-10,33-2.83,1.47-7.15,1.94-37-15C559.86,233,558.38,230,558.5,227.5Z" transform="translate(-178.64 -177.26)"/></g><g id="Layer_4" data-name="Layer 4"><path class="cls-3" d="M459.5,343.5a78.1,78.1,0,0,0-9-13c-3.6-4.22-5.82-5.91-11-11-4.4-4.31-7.6-7.88-14-15-9.41-10.47-14.11-15.7-16-19-2.4-4.2-7.45-13-7-24,.61-14.9,11-25.06,14-28,18.24-17.85,51.42-19.86,76-9,44.63,19.72,47.84,76.12,48,80,.29,7,.89,29.07-13,51-4.44,7-16.05,25.34-39,32a61.64,61.64,0,0,1-39-2c-5-2-13.95-5.77-21-15-2.87-3.76-13-17-8-32,4.28-12.85,16.7-18.08,19-19" transform="translate(-178.64 -177.26)"/></g><g id="Layer_5" data-name="Layer 5"><path class="cls-3" d="M325.5,316.5c26.13,15.79,43.61,28.23,56,38,7.23,5.7,19.45,15.78,38,19a69,69,0,0,0,13,1" transform="translate(-178.64 -177.26)"/><path class="cls-3" d="M286.5,429.5a123.7,123.7,0,0,1,46-1c17.35,2.93,29.67,8.89,38,13a162.83,162.83,0,0,1,39,27" transform="translate(-178.64 -177.26)"/><path class="cls-3" d="M515.5,371.5a103.88,103.88,0,0,0,33-9,101.77,101.77,0,0,0,28-19,97.92,97.92,0,0,0,14-17" transform="translate(-178.64 -177.26)"/><path class="cls-3" d="M519.5,477.5a127.88,127.88,0,0,1,36-29c15.12-8.14,28.57-11.31,40-14a211.31,211.31,0,0,1,32-5" transform="translate(-178.64 -177.26)"/><path class="cls-3" d="M440.5,473.5a56.1,56.1,0,0,1,18-9c3.95-1.15,8.82-2.56,15-2,9.66.87,16.6,6,20,9" transform="translate(-178.64 -177.26)"/></g><g id="Layer_6" data-name="Layer 6"><path class="cls-4" d="M348.5,330.5c-5.93-.7-10.48,2.33-19,8-8.35,5.56-16.07,10.7-22,21a55.24,55.24,0,0,0-7,24c-.69,8.77.74,15.07,3,25,2,9,3.12,13.53,6,16,4.71,4.05,9.52,2.16,23,4a128.51,128.51,0,0,1,18,4,122.17,122.17,0,0,1,30,14c10.26,6.6,10,8.57,14,9,12.6,1.35,25.46-17.29,31-31,7.55-18.69,8.05-44.44-3-51-3.68-2.19-5.36-.3-14-3-3.31-1-8-2.84-20-11a268,268,0,0,1-23-17C354.88,333.69,353.4,331.08,348.5,330.5Z" transform="translate(-178.64 -177.26)"/><path class="cls-4" d="M517.5,371.5c-6.07,3.22-9.06,8.66-12,14a48.09,48.09,0,0,0-6,18c-2.35,20.66,11,35.85,13,38,3.82,4.2,13,14.33,25,14,2.93-.08,3.8-.73,18-7,13.22-5.84,19.92-8.78,24-10,7.9-2.35,8.71-1.49,22-5,12.83-3.39,14.82-4.91,16-6,6.41-5.89,6.74-15.1,7-22a55.92,55.92,0,0,0-5-25c-6.6-14.55-17.38-22-26-28-6.67-4.63-10-6.94-14-7-8.82-.13-10.84,7.86-27,16-4.87,2.45-10.69,5.39-19,7S522.57,368.81,517.5,371.5Z" transform="translate(-178.64 -177.26)"/></g><g id="Layer_7" data-name="Layer 7"><path class="cls-5" d="M332.5,428.5c-7.48-5.08-10.14-13.26-12-19a53.19,53.19,0,0,1-1-28,56.91,56.91,0,0,1,9-21c4.38-6.15,8.76-9.64,13-13,6.4-5.06,10-7.82,14-7,3.17.65,3.4,2.87,9,7,1.63,1.2,4.78,2.82,11,6,7.65,3.91,8.11,4,16,8,8.71,4.43,8.32,4.25,9.6,4.8,6.41,2.73,8.58,2.63,11.4,6.2,8.12,10.3,4.84,25.18,4,29-4.23,19.24-20.92,38.62-38,39-7.4.17-7.2-3.4-26-7C341.06,431.31,337.63,432,332.5,428.5Z" transform="translate(-178.64 -177.26)"/><path class="cls-5" d="M555.5,448.5c-14.86.4-25.67-8.08-28-10a43.48,43.48,0,0,1-13-18c-2.66-7.15-2.11-14.1-1-28,1.3-16.25,4-19.42,6-21,2.78-2.17,4.08-1.12,12-3a95.25,95.25,0,0,0,23-9c7.69-4.24,9.72-6.92,15-7a19.36,19.36,0,0,1,10,3c10.27,5.73,24.85,13.87,32,32,2.12,5.38,5.61,14.24,3,25a32.89,32.89,0,0,1-8,15c-4.92,5.15-9.29,6-23,11C560.46,446.83,561.72,448.33,555.5,448.5Z" transform="translate(-178.64 -177.26)"/><path class="cls-5" d="M636.5,456.5" transform="translate(-178.64 -177.26)"/></g><g id="Layer_8" data-name="Layer 8"><path class="cls-6" d="M232.5,466.5a28.79,28.79,0,0,0,7-4c.56-.44,5-3.93,7-8,4.69-9.42-3.64-21.49-4-22" transform="translate(-178.64 -177.26)"/><path class="cls-6" d="M310.5,550.5a214,214,0,0,0,31,18c19.27,9.11,31.78,11.44,35,12,2.88.5,5.3.81,7,1" transform="translate(-178.64 -177.26)"/><path class="cls-6" d="M544.5,571.5a45.42,45.42,0,0,0,23-7,44.53,44.53,0,0,0,11-10" transform="translate(-178.64 -177.26)"/><path class="cls-6" d="M682.5,455.5c-10.63,2.69-20,5.05-20,5s1.14-.33,3-1h0" transform="translate(-178.64 -177.26)"/><path class="cls-6" d="M642.5,480.5c3.17-7.07,7.11-16.55,11-28,3.67-10.8,7.39-21.56,10-36a190.47,190.47,0,0,0,3-36" transform="translate(-178.64 -177.26)"/><path class="cls-6" d="M206.5,440.5l16,5" transform="translate(-178.64 -177.26)"/></g></svg>